<svg width="45" height="45" viewBox="0 0 45 45" fill="none" xmlns="http://www.w3.org/2000/svg">
<g clip-path="url(#clip0_41_207)">
<path fill-rule="evenodd" clip-rule="evenodd" d="M35.625 45H9.375C4.19813 45 0 40.8019 0 35.625V9.375C0 4.19813 4.19813 0 9.375 0H35.625C40.8038 0 45 4.19813 45 9.375V35.625C45 40.8019 40.8056 44.9981 35.625 45ZM37.4437 34.4081V33.9038L35.1056 31.6087C34.8994 31.4512 34.7962 31.1925 34.8394 30.9356V14.0644C34.7962 13.8075 34.8994 13.5488 35.1056 13.3913L37.5 11.0963V10.5919H29.2088L23.2987 25.335L16.575 10.5919H7.87875V11.0963L10.68 14.4694C10.9538 14.7188 11.0944 15.0825 11.0569 15.45V28.71C11.1394 29.1881 10.9875 29.6775 10.6519 30.0262L7.5 33.8475V34.3519H16.4362V33.8475L13.2844 30.0262C12.945 29.6775 12.7856 29.1919 12.8494 28.71V17.2425L20.6925 34.3519H21.6038L28.3406 17.2425V30.8794C28.3406 31.2431 28.3406 31.3144 28.1025 31.5525L25.68 33.9038V34.4081H37.4437Z" fill="#007AFF"/>
</g>
<defs>
<clipPath id="clip0_41_207">
<rect width="45" height="45" fill="white"/>
</clipPath>
</defs>
</svg>
